<?xml version="1.0" standalone="no"?>
<!DOCTYPE svg PUBLIC "-//W3C//DTD SVG 20010904//EN"
 "http://www.w3.org/TR/2001/REC-SVG-20010904/DTD/svg10.dtd">
<svg version="1.0" xmlns="http://www.w3.org/2000/svg"
 width="500.000000pt" height="500.000000pt" viewBox="0 0 500.000000 500.000000"
 preserveAspectRatio="xMidYMid meet">

<g transform="translate(0.000000,500.000000) scale(0.100000,-0.100000)"
fill="#000000" stroke="none">
<path d="M2235 3540 c-260 -57 -236 -363 46 -595 14 -11 57 -46 96 -78 82 -66
140 -132 200 -224 40 -62 83 -168 83 -205 0 -26 12 -21 35 14 11 17 44 45 74
61 45 26 64 30 125 30 39 0 91 -5 116 -12 l44 -13 -34 -15 c-49 -20 -78 -50
-110 -114 -46 -90 -132 -152 -165 -118 -30 31 17 111 98 170 46 34 42 37 -11
10 -48 -24 -105 -86 -164 -177 -53 -83 -90 -120 -137 -141 -31 -13 -32 -15
-15 -28 15 -12 79 -14 332 -15 l312 0 0 345 0 345 168 0 167 0 -36 33 c-20 17
-97 79 -170 137 -179 141 -243 192 -249 200 -3 3 -25 21 -50 40 -25 19 -54 42
-65 52 -11 9 -78 63 -150 119 -71 57 -141 113 -154 125 -61 56 -53 60 -243
-93 -96 -77 -184 -145 -196 -152 -34 -18 -75 -10 -90 19 -17 33 -8 119 19 172
27 54 34 42 13 -22 -32 -96 10 -165 64 -107 17 18 25 43 31 99 8 73 23 116 45
130 17 11 3 15 -29 8z m574 -762 c-5 -18 -9 -59 -9 -91 0 -32 -7 -71 -15 -87
-16 -32 -65 -70 -88 -70 -19 0 -39 56 -39 114 -1 58 27 102 87 137 66 38 76
38 64 -3z"/>
</g>
</svg>
