<svg version="1.1" id="Layer_1" xmlns="http://www.w3.org/2000/svg" xmlns:xlink="http://www.w3.org/1999/xlink" x="0px" y="0px"
	 width="100%" viewBox="0 0 500 500" enable-background="new 0 0 500 500" xml:space="preserve">
<path fill="#FFEBEA" opacity="1.000000" stroke="none" 
	d="
M228.000000,501.000000 
	C152.000015,501.000000 76.500038,501.000000 1.000041,501.000000 
	C1.000027,334.333405 1.000027,167.666779 1.000013,1.000130 
	C167.666565,1.000087 334.333130,1.000087 500.999756,1.000043 
	C500.999847,167.666534 500.999847,334.333069 500.999939,500.999817 
	C410.166656,501.000000 319.333344,501.000000 228.000000,501.000000 
M224.567642,153.639404 
	C224.644638,153.296875 224.721634,152.954361 224.835556,152.017014 
	C224.996597,151.659134 225.157654,151.301254 225.942078,150.857147 
	C227.201569,149.426849 228.461060,147.996536 229.720566,146.566238 
	C229.511810,145.983978 229.303070,145.401718 229.094330,144.819458 
	C224.593140,145.855103 220.126556,147.099640 215.578613,147.853119 
	C212.535812,148.357239 211.857819,150.085129 211.502045,153.202698 
	C209.698975,155.478668 207.895889,157.754639 205.815643,159.136658 
	C205.815643,155.304337 205.815643,151.472031 205.815643,146.607407 
	C197.826569,152.490601 194.683670,159.175217 194.748795,167.779617 
	C194.766754,170.152817 192.925613,172.540100 191.879349,173.883972 
	C190.882980,151.792633 181.530899,134.071045 163.720413,119.010696 
	C163.378113,122.151985 163.170914,123.742935 163.035995,125.339989 
	C161.842041,139.474228 166.177917,151.898926 173.675140,163.048019 
	C172.665085,163.174072 171.655029,163.300125 169.959442,163.179291 
	C161.870804,159.538071 153.600891,157.788986 144.607544,160.183411 
	C149.428177,170.781708 175.527924,184.084183 187.188797,180.189072 
	C186.454086,178.118149 185.719391,176.047241 185.673737,173.573517 
	C187.772354,173.989487 189.870972,174.405457 192.487473,175.381592 
	C190.030930,181.311508 187.434235,187.187851 185.143631,193.181198 
	C177.751343,212.522949 173.835571,232.260910 180.277298,252.658920 
	C182.876007,260.887878 186.492783,268.794861 193.996765,273.999603 
	C193.996765,273.999603 193.818542,274.160431 194.022812,274.793854 
	C205.585693,286.884491 220.037918,291.514130 236.087875,292.017975 
	C236.324295,291.581665 236.560699,291.145355 236.797104,290.709045 
	C232.877625,287.792419 228.958145,284.875763 224.999878,281.999023 
	C224.999878,281.999023 225.039948,281.971954 224.904373,281.463409 
	C224.609299,281.297943 224.314224,281.132477 224.000717,281.000244 
	C224.000717,281.000244 224.033722,280.971436 223.832367,280.334198 
	C223.205002,279.575562 222.658615,278.728058 221.938019,278.071777 
	C212.439316,269.420807 204.913651,259.290985 199.076889,247.865173 
	C198.668304,247.065353 197.738113,246.531998 196.982788,245.437149 
	C196.982788,245.437149 196.822983,245.024216 196.898270,244.315414 
	C196.699295,243.303726 196.500305,242.292023 196.301315,241.280334 
	C198.371841,242.044754 199.482773,243.314407 200.401367,244.710602 
	C209.404251,258.394684 220.372314,270.053650 235.303162,277.277222 
	C240.851898,279.961700 247.086868,281.970428 252.804352,277.716370 
	C258.375763,273.570953 259.500427,267.227783 257.840118,261.065277 
	C255.964340,254.102997 253.579651,247.039566 250.021164,240.818069 
	C242.418350,227.525696 229.369705,219.362350 218.147079,209.578186 
	C207.909836,200.653061 201.599777,189.885849 199.468048,176.574203 
	C199.317749,175.635620 199.235641,174.510727 199.607178,173.692978 
	C201.699524,169.087646 203.940521,164.549850 206.587997,160.840775 
	C206.755020,165.557220 206.922058,170.273651 207.048050,175.680862 
	C207.217911,176.097824 207.387772,176.514786 207.637039,177.655807 
	C211.769531,192.189590 221.707962,202.102081 233.676208,210.056488 
	C233.676208,210.056488 233.661270,210.388748 233.956238,210.965317 
	C238.975128,215.305740 243.994019,219.646179 249.000000,224.000000 
	C249.000000,224.000000 249.013870,223.988998 249.078262,224.529999 
	C249.383682,224.692184 249.689117,224.854385 249.999741,224.998428 
	C249.999741,224.998428 249.982986,225.008667 250.186676,225.658478 
	C255.008011,233.203415 259.829346,240.748352 264.875427,248.146088 
	C264.875427,248.146088 264.624359,248.241745 264.725861,249.034012 
	C265.650208,252.499222 266.574554,255.964447 267.717865,260.250519 
	C269.716492,257.419342 271.298370,255.178543 272.962128,252.957581 
	C272.962128,252.957581 272.936737,252.877258 273.610962,252.690384 
	C282.736298,245.656601 292.643005,245.462860 302.426086,248.614227 
	C299.057465,252.562134 295.082275,255.959854 292.763947,260.252411 
	C289.767761,265.800201 286.300049,270.572998 281.015076,273.995209 
	C281.015076,273.995209 281.021301,274.054993 280.171936,274.071808 
	C278.774017,274.232910 277.376129,274.394012 275.691864,274.178802 
	C275.691864,274.178802 275.250488,274.009247 275.393127,273.784058 
	C275.393127,273.784058 275.209808,273.592224 275.209808,273.592224 
	C275.209808,273.592224 274.980591,273.726715 274.882019,272.788483 
	C274.855652,271.845978 274.829285,270.903473 275.205200,269.398163 
	C278.865814,264.641510 282.526428,259.884857 286.395905,254.856796 
	C281.935760,255.840454 278.629395,258.308868 275.621124,262.331299 
	C275.312561,262.808441 275.003998,263.285583 274.651215,263.736542 
	C274.651215,263.736542 274.609863,263.706024 274.211060,263.917511 
	C274.211060,263.917511 274.027405,264.329895 273.469055,264.562866 
	C272.513794,266.063110 271.558533,267.563354 270.170868,269.461182 
	C270.115570,269.648987 270.060272,269.836792 269.448669,270.378662 
	C264.350281,277.813141 260.343048,286.324005 250.256805,289.472015 
	C253.003433,291.069122 255.534592,292.303467 258.076752,292.326630 
	C276.382080,292.493256 294.689606,292.421051 312.996429,292.398804 
	C314.276917,292.397247 315.557129,292.189148 317.299133,292.036682 
	C317.299133,269.053864 317.299133,246.337555 317.299133,222.997498 
	C328.607178,222.997498 339.439117,222.997498 350.271027,222.997498 
	C346.892700,218.984650 343.240234,215.952576 339.508667,213.021225 
	C328.019135,203.995514 316.499329,195.008316 305.000000,186.000000 
	C305.000000,186.000000 304.993805,186.009216 304.817535,185.365097 
	C294.837646,177.516190 284.857758,169.667282 274.552399,161.342178 
	C274.371613,161.276810 274.190796,161.211441 273.701965,160.798309 
	C273.701965,160.798309 273.244415,160.717865 273.031525,160.944916 
	C273.031525,160.944916 273.268158,160.742752 273.056976,160.115021 
	C270.022003,157.770508 266.987061,155.425995 263.949829,153.002304 
	C263.949829,153.002304 263.898010,153.062241 263.590485,152.491089 
	C262.984894,151.937225 262.311890,151.440659 261.784729,150.820160 
	C258.447052,146.891464 255.540375,147.237869 251.615524,150.621902 
	C243.375259,157.726791 234.627670,164.243271 225.594437,171.152267 
	C225.388489,171.418228 225.182526,171.684174 225.001617,171.997925 
	C225.001617,171.997925 224.953995,171.972610 224.205719,171.957291 
	C223.451782,170.937958 222.697861,169.918640 221.989029,168.452530 
	C221.989029,168.452530 222.158905,168.036835 222.724152,167.923004 
	C222.752274,167.254501 222.780396,166.586014 222.812836,165.185593 
	C222.829956,164.457245 222.847076,163.728882 223.093857,162.350082 
	C223.177261,161.898499 223.260681,161.446899 223.688202,160.697281 
	C223.636719,160.148163 223.585236,159.599030 223.452545,158.349869 
	C223.397705,157.885345 223.342865,157.420807 223.534714,156.552856 
	C223.655212,156.222748 223.600677,155.924667 223.792908,155.196686 
	C223.918808,154.799683 224.044693,154.402679 224.567642,153.639404 
M175.570129,311.106750 
	C175.521347,311.252197 175.402206,311.418427 175.437866,311.538910 
	C175.522552,311.825012 175.680542,312.089478 175.731064,312.686310 
	C175.731064,312.686310 175.815598,313.008270 175.745667,313.796509 
	C175.738724,314.850952 175.731766,315.905365 175.398239,317.312988 
	C175.508026,317.889923 175.617813,318.466888 175.718170,319.974640 
	C175.723022,327.304291 175.727875,334.633972 175.416702,342.403931 
	C175.958893,342.909149 176.501083,343.414368 177.686096,343.995178 
	C178.116867,343.979645 178.547638,343.964142 179.860718,344.078064 
	C184.511490,344.281555 189.165009,344.644318 193.810883,344.564148 
	C194.830276,344.546509 195.822464,342.953094 196.827179,342.085327 
	C195.702194,341.560089 194.604553,340.661255 193.447311,340.576477 
	C189.211441,340.266205 184.955719,340.226990 180.829880,339.155334 
	C180.856476,335.368958 180.883072,331.582581 181.533936,327.794495 
	C182.153687,327.581299 182.773438,327.368103 184.173828,326.886322 
	C182.572891,326.343109 181.848358,326.097290 181.073898,324.940399 
	C181.020340,320.906708 180.966782,316.872986 181.720810,312.754791 
	C185.628860,312.850342 189.540787,313.073151 193.442276,312.953918 
	C194.445724,312.923248 195.416245,311.815216 196.401901,311.202118 
	C195.450043,310.543121 194.530624,309.379974 193.540466,309.316254 
	C190.081665,309.093658 186.584808,309.068329 183.129059,309.325806 
	C180.690964,309.507507 178.296051,310.268677 175.570129,311.106750 
M289.802765,330.601227 
	C289.619690,330.325623 289.377716,330.119080 288.917480,329.433624 
	C288.649017,329.169220 288.380585,328.904785 288.020477,328.117798 
	C287.930084,327.965820 287.839691,327.813812 288.418915,327.404114 
	C295.141205,325.141785 297.449493,322.488953 296.962524,317.585144 
	C296.492340,312.850159 293.189728,310.140045 286.596191,309.503387 
	C283.303101,309.185394 279.925934,309.061829 276.662781,309.465149 
	C275.468781,309.612701 273.592743,311.512939 273.562012,312.654938 
	C273.307861,322.099152 273.326233,331.554962 273.535980,341.001190 
	C273.558929,342.036072 275.308624,343.032562 276.257446,344.046875 
	C277.191406,343.020630 278.855804,342.043335 278.928436,340.959351 
	C279.193695,337.001556 278.927948,333.008240 278.981598,328.563568 
	C278.981598,328.563568 279.048218,328.089111 279.765472,328.004700 
	C280.918274,328.200775 282.071106,328.396851 283.361023,329.295349 
	C286.383362,333.448944 289.592865,337.481964 292.369995,341.793488 
	C294.679565,345.379120 297.169861,345.652405 301.066986,343.148285 
	C297.677338,339.541229 294.551453,336.214813 291.208862,332.319366 
	C290.801300,331.895264 290.393738,331.471191 289.802765,330.601227 
M141.881073,344.083191 
	C145.599976,343.810577 149.318893,343.537933 153.699097,343.179352 
	C154.133057,343.084442 154.567017,342.989502 155.514664,342.839783 
	C155.785248,342.631439 156.055832,342.423065 157.010513,342.078949 
	C167.391800,339.367828 168.603882,324.341278 163.425018,317.487671 
	C161.810837,315.351501 158.715210,314.334747 156.020493,312.140686 
	C151.394623,308.790405 146.298660,308.687164 140.257462,309.872925 
	C139.508301,309.900330 138.759140,309.927704 137.634552,309.613007 
	C137.256958,310.107269 136.879349,310.601562 136.257309,311.987640 
	C136.299606,321.953796 136.341904,331.919922 136.164581,342.471924 
	C136.779053,342.981659 137.393539,343.491425 138.748978,344.018158 
	C139.489365,343.997437 140.229767,343.976715 141.881073,344.083191 
M219.650604,343.985931 
	C219.921844,343.294769 220.193069,342.603607 220.688156,341.025421 
	C220.892654,337.026764 221.097153,333.028076 221.831390,328.649719 
	C223.881348,324.501770 226.066574,320.413147 227.922775,316.180237 
	C228.817368,314.140198 229.092056,311.828339 229.647430,309.639557 
	C228.033615,311.602478 226.223587,313.438049 224.849152,315.556305 
	C222.422012,319.297058 220.260269,323.210083 217.801758,326.354279 
	C215.565887,321.735260 213.092712,317.212494 211.167542,312.467407 
	C209.562607,308.511658 207.241302,308.943115 203.984116,310.320038 
	C207.525894,320.234314 216.415512,327.756287 214.812744,339.449860 
	C215.551102,340.948517 216.289459,342.447205 217.679138,344.016052 
	C218.115326,344.009674 218.551529,344.003265 219.650604,343.985931 
M317.523254,315.471710 
	C313.402405,324.735138 309.281586,333.998566 305.160736,343.261993 
	C305.571198,343.590912 305.981689,343.919830 306.392151,344.248718 
	C307.348999,343.505707 308.973663,342.898285 309.156525,341.998077 
	C310.558105,335.096985 315.333252,334.365692 321.084930,334.969940 
	C322.708740,335.140533 324.379883,334.860596 326.634277,335.194672 
	C327.477234,336.800690 328.585083,338.325256 329.109314,340.029297 
	C330.288239,343.861694 332.588257,344.902649 336.782257,343.324585 
	C331.733826,331.846527 326.731201,320.472626 321.728607,309.098694 
	C321.256012,309.150208 320.783417,309.201752 320.310852,309.253265 
	C319.549652,311.169861 318.788483,313.086487 317.523254,315.471710 
M254.771942,334.935211 
	C255.994675,336.745178 257.641846,338.404694 258.348175,340.397675 
	C259.653809,344.081787 261.894562,344.718445 266.005066,343.305542 
	C260.947388,331.803497 255.964783,320.472107 250.982147,309.140717 
	C250.481323,309.213287 249.980484,309.285828 249.479645,309.358398 
	C248.940903,310.827606 248.402176,312.296783 247.360870,314.258301 
	C243.041656,323.887726 238.722443,333.517151 234.403214,343.146576 
	C235.037201,343.523193 235.671188,343.899780 236.305176,344.276398 
	C237.168610,343.401581 238.635315,342.625763 238.797699,341.635956 
	C239.864273,335.134033 244.124969,334.249115 249.587570,334.963989 
	C251.035782,335.153503 252.550522,334.834686 254.771942,334.935211 
M346.757385,344.018677 
	C347.498291,343.951172 348.239166,343.883667 349.670837,343.375519 
	C349.762390,338.854095 349.853912,334.332703 350.680664,329.724030 
	C354.575623,333.954468 358.535522,338.127563 362.342468,342.435791 
	C364.840332,345.262543 367.420624,345.620331 370.898804,343.310455 
	C368.775543,341.039215 366.924774,338.957977 364.965027,336.984985 
	C361.281097,333.276093 357.534241,329.629761 354.342896,325.543549 
	C359.288239,320.518219 364.233612,315.492889 369.178955,310.467560 
	C368.658752,309.946167 368.138519,309.424805 367.618317,308.903412 
	C361.047119,312.793091 356.618652,319.030457 350.975555,324.743652 
	C350.655823,320.724579 350.506439,316.680115 349.914001,312.701630 
	C349.732910,311.485748 348.334656,310.451111 347.493835,309.333466 
	C346.432983,310.314941 344.457031,311.292419 344.452759,312.278442 
	C344.409637,322.193298 344.690002,332.109589 344.848145,342.658722 
	C345.238403,343.075012 345.628662,343.491302 346.757385,344.018677 
z"/>
<path fill="#D33019" opacity="1.000000" stroke="none" 
	d="
M207.557648,176.931747 
	C207.387772,176.514786 207.217911,176.097824 207.390167,175.371262 
	C208.540421,175.356537 209.348557,175.651413 210.270691,176.175873 
	C210.635376,176.847961 210.886078,177.290451 211.290070,178.050537 
	C213.377197,179.535553 215.366074,181.671906 217.030319,178.021393 
	C217.032822,177.991974 217.070587,178.037399 217.248901,178.009735 
	C217.664612,177.897293 217.844360,177.744659 218.231995,177.370026 
	C218.887833,177.095947 219.278152,176.975998 220.036255,176.865234 
	C220.852921,176.387161 221.301819,175.899948 221.841187,175.260162 
	C222.093887,174.922226 222.295807,174.805618 222.899506,174.787628 
	C223.816986,174.177139 224.372391,173.536865 224.932510,172.914444 
	C224.937210,172.932312 224.902039,172.906235 225.270905,172.926483 
	C226.553131,172.628769 227.643860,172.530365 228.351929,171.958313 
	C234.248245,167.194244 240.021606,162.277466 245.937042,157.537750 
	C251.046295,153.444031 255.682327,147.133102 263.408813,153.046921 
	C263.514099,153.127502 263.732452,153.060410 263.898010,153.062241 
	C263.898010,153.062241 263.949829,153.002304 263.992981,153.382324 
	C267.113464,156.089157 270.190796,158.415955 273.268158,160.742752 
	C273.268158,160.742752 273.031525,160.944916 273.115448,161.018921 
	C273.469574,161.110626 273.739746,161.128342 274.009949,161.146072 
	C274.190796,161.211441 274.371613,161.276810 274.738220,161.900131 
	C275.105164,163.088028 275.080139,163.975189 275.497864,164.309937 
	C283.949921,171.083405 292.423767,177.830948 300.981873,184.469406 
	C302.065369,185.309860 303.644379,185.511566 304.993805,186.009216 
	C304.993805,186.009216 305.000000,186.000000 305.023315,186.348602 
	C305.604492,187.508331 306.007721,188.512634 306.743408,189.101654 
	C318.221191,198.291016 329.740692,207.428284 341.254089,216.573135 
	C343.079376,218.022934 344.921906,219.451065 347.641998,221.583374 
	C345.314972,221.827484 344.365601,222.011215 343.415833,222.013443 
	C335.591827,222.031769 327.767700,222.030563 319.943726,222.003220 
	C317.352234,221.994171 315.676575,222.242432 315.724609,225.803665 
	C315.991791,245.605865 315.903931,265.412567 316.052856,285.216858 
	C316.085480,289.557739 314.126465,291.072205 309.961060,291.047058 
	C292.981812,290.944550 276.001495,291.023346 259.021698,290.979309 
	C257.532074,290.975433 256.043488,290.564240 253.699127,290.214722 
	C261.459747,284.379639 268.181274,279.120758 270.004974,270.024628 
	C270.060272,269.836792 270.115570,269.648987 270.679993,269.190552 
	C272.135193,267.389893 273.081299,265.859894 274.027405,264.329895 
	C274.027405,264.329895 274.211060,263.917511 274.515564,264.187592 
	C274.814331,266.292114 274.808624,268.126526 274.802917,269.960968 
	C274.829285,270.903473 274.855652,271.845978 274.967133,273.311310 
	C275.052246,273.834137 275.250488,274.009247 275.250488,274.009247 
	C275.250488,274.009247 275.691864,274.178802 276.029083,274.585693 
	C277.917969,274.680054 279.469635,274.367523 281.021301,274.054993 
	C281.021301,274.054993 281.015076,273.995209 281.402893,274.023621 
	C284.361298,272.344391 287.604828,271.150787 289.375702,268.832336 
	C294.584900,262.012329 297.106079,252.955582 307.286652,250.189529 
	C298.153809,243.237946 289.183319,244.598526 280.495148,246.693024 
	C277.644409,247.380249 275.437866,250.739761 272.936737,252.877258 
	C272.936737,252.877258 272.962128,252.957581 272.578766,252.958954 
	C270.970856,253.397110 269.746338,253.833878 268.837036,254.158218 
	C267.396423,252.134964 266.010376,250.188354 264.624359,248.241745 
	C264.624359,248.241745 264.875427,248.146088 264.875610,247.815308 
	C263.917480,244.562119 263.592987,241.177277 261.868622,238.813766 
	C258.301239,233.924240 253.988922,229.578217 249.982986,225.008667 
	C249.982986,225.008667 249.999741,224.998428 249.905228,224.776398 
	C249.616531,224.265259 249.350922,224.076813 249.013870,223.988998 
	C249.013870,223.988998 249.000000,224.000000 249.012268,223.628845 
	C244.549515,218.897430 240.094421,214.516083 235.555054,210.223846 
	C235.249207,209.934677 234.307327,210.318130 233.661270,210.388733 
	C233.661270,210.388748 233.676208,210.056488 233.665649,209.864594 
	C231.657913,207.529526 229.656769,205.390076 227.664490,203.242401 
	C223.773071,199.047409 219.562851,195.096497 216.092178,190.577881 
	C212.839188,186.342667 210.371124,181.504547 207.557648,176.931747 
M267.132202,240.928070 
	C268.056824,243.339294 268.981445,245.750519 270.035950,248.500366 
	C276.271149,245.534393 280.577606,241.898636 280.936615,235.286362 
	C281.203278,230.375381 280.989105,225.438293 280.989105,220.704742 
	C270.955353,223.364563 266.260284,229.577713 267.132202,240.928070 
z"/>
<path fill="#FE725E" opacity="1.000000" stroke="none" 
	d="
M196.822983,245.024216 
	C196.822983,245.024216 196.982788,245.437149 197.004715,246.047302 
	C197.397812,248.097137 197.506317,249.675812 198.182632,250.954071 
	C202.694885,259.482269 207.937241,267.571289 214.937103,274.245117 
	C217.615036,276.798279 219.000153,281.492706 224.033722,280.971436 
	C224.033722,280.971436 224.000717,281.000244 224.114044,281.210693 
	C224.430389,281.704773 224.701248,281.888397 225.039948,281.971954 
	C225.039948,281.971954 224.999878,281.999023 225.001678,282.401367 
	C224.638336,287.554291 222.232208,289.756042 218.487183,287.709381 
	C211.294724,283.778687 202.093094,282.541016 198.646866,273.688202 
	C196.783340,273.870483 195.300934,274.015472 193.818542,274.160431 
	C193.818542,274.160431 193.996765,273.999603 193.969330,273.698486 
	C193.251236,272.021881 192.856918,270.348602 191.822205,269.318756 
	C184.633789,262.164185 181.311951,252.558044 180.882843,243.447830 
	C180.343292,231.993088 177.913406,220.083221 182.857285,208.601379 
	C187.265915,198.362610 190.658371,187.687805 194.622360,177.252182 
	C194.855362,176.638779 196.188217,176.443146 196.923492,176.093842 
	C198.350113,181.355774 199.274002,186.464493 201.160065,191.189117 
	C202.707626,195.065872 204.755386,199.155396 207.699997,201.987717 
	C218.191223,212.078873 229.227173,221.601425 239.882919,231.526047 
	C241.693756,233.212646 242.648697,235.818192 243.725433,238.041031 
	C243.138535,238.376633 242.825272,238.670395 242.512024,238.964142 
	C242.712433,239.136108 242.912827,239.308060 243.113220,239.480011 
	C243.409088,238.986969 243.704956,238.493942 244.359375,238.041260 
	C246.097687,239.426773 247.942444,240.536591 248.765823,242.163361 
	C250.831329,246.244247 252.990524,250.421951 254.074448,254.816727 
	C255.271164,259.668976 255.962143,264.846710 255.654037,269.806915 
	C255.400269,273.892181 248.696518,278.661560 245.002762,277.828857 
	C240.563980,276.828217 235.807037,275.695099 232.114380,273.230927 
	C222.719910,266.961823 213.619522,260.131897 207.383392,250.379044 
	C202.882080,243.339325 198.619980,236.146515 194.106583,229.114777 
	C193.351379,227.938202 191.858459,227.235153 190.706406,226.313293 
	C190.279800,228.067703 189.167068,230.002380 189.570740,231.538635 
	C190.388443,234.650635 191.884689,237.621124 193.383331,240.503250 
	C194.244186,242.158798 195.658066,243.526779 196.822983,245.024216 
z"/>
<path fill="#F67C6B" opacity="1.000000" stroke="none" 
	d="
M243.999069,237.999176 
	C242.648697,235.818192 241.693756,233.212646 239.882919,231.526047 
	C229.227173,221.601425 218.191223,212.078873 207.699997,201.987717 
	C204.755386,199.155396 202.707626,195.065872 201.160065,191.189117 
	C199.274002,186.464493 198.350113,181.355774 196.923492,176.093842 
	C196.188217,176.443146 194.855362,176.638779 194.622360,177.252182 
	C190.658371,187.687805 187.265915,198.362610 182.857285,208.601379 
	C177.913406,220.083221 180.343292,231.993088 180.882843,243.447830 
	C181.311951,252.558044 184.633789,262.164185 191.822205,269.318756 
	C192.856918,270.348602 193.251236,272.021881 193.892395,273.789673 
	C186.492783,268.794861 182.876007,260.887878 180.277298,252.658920 
	C173.835571,232.260910 177.751343,212.522949 185.143631,193.181198 
	C187.434235,187.187851 190.030930,181.311508 192.227646,175.122467 
	C191.967819,174.863327 191.937500,174.920914 191.937500,174.920914 
	C192.925613,172.540100 194.766754,170.152817 194.748795,167.779617 
	C194.683670,159.175217 197.826569,152.490601 205.815643,146.607407 
	C205.815643,151.472031 205.815643,155.304337 205.936691,159.550751 
	C206.057739,159.964844 206.130814,159.989014 206.130814,159.989014 
	C203.940521,164.549850 201.699524,169.087646 199.607178,173.692978 
	C199.235641,174.510727 199.317749,175.635620 199.468048,176.574203 
	C201.599777,189.885849 207.909836,200.653061 218.147079,209.578186 
	C229.369705,219.362350 242.418350,227.525696 250.021164,240.818069 
	C253.579651,247.039566 255.964340,254.102997 257.840118,261.065277 
	C259.500427,267.227783 258.375763,273.570953 252.804352,277.716370 
	C247.086868,281.970428 240.851898,279.961700 235.303162,277.277222 
	C220.372314,270.053650 209.404251,258.394684 200.401367,244.710602 
	C199.482773,243.314407 198.371841,242.044754 196.301315,241.280334 
	C196.500305,242.292023 196.699295,243.303726 196.860626,244.669815 
	C195.658066,243.526779 194.244186,242.158798 193.383331,240.503250 
	C191.884689,237.621124 190.388443,234.650635 189.570740,231.538635 
	C189.167068,230.002380 190.279800,228.067703 190.706406,226.313293 
	C191.858459,227.235153 193.351379,227.938202 194.106583,229.114777 
	C198.619980,236.146515 202.882080,243.339325 207.383392,250.379044 
	C213.619522,260.131897 222.719910,266.961823 232.114380,273.230927 
	C235.807037,275.695099 240.563980,276.828217 245.002762,277.828857 
	C248.696518,278.661560 255.400269,273.892181 255.654037,269.806915 
	C255.962143,264.846710 255.271164,259.668976 254.074448,254.816727 
	C252.990524,250.421951 250.831329,246.244247 248.765823,242.163361 
	C247.942444,240.536591 246.097687,239.426773 244.358948,238.040802 
	C244.000000,238.000000 243.999069,237.999176 243.999069,237.999176 
M196.006592,167.445892 
	C196.251953,168.597229 196.497314,169.748566 196.812042,171.225403 
	C203.259216,166.027618 204.870148,158.139099 201.216553,156.243164 
	C199.749176,158.667328 198.263977,160.951202 196.970871,163.339096 
	C196.438751,164.321671 196.320084,165.528122 196.006592,167.445892 
z"/>
<path fill="#FA7764" opacity="1.000000" stroke="none" 
	d="
M191.908417,174.402435 
	C191.937500,174.920914 191.967819,174.863327 191.968704,174.842377 
	C189.870972,174.405457 187.772354,173.989487 185.333252,173.787079 
	C184.992752,174.000626 185.018265,174.004608 185.213226,173.672913 
	C185.332016,173.096237 185.255814,172.851273 185.081848,172.294830 
	C181.560699,168.995514 178.137329,166.007675 174.713959,163.019836 
	C166.177917,151.898926 161.842041,139.474228 163.035995,125.339989 
	C163.170914,123.742935 163.378113,122.151985 163.720413,119.010696 
	C181.530899,134.071045 190.882980,151.792633 191.908417,174.402435 
z"/>
<path fill="#F87966" opacity="1.000000" stroke="none" 
	d="
M184.988724,173.988464 
	C185.719391,176.047241 186.454086,178.118149 187.188141,180.189301 
	C175.527924,184.084183 149.428177,170.781708 144.607544,160.183411 
	C153.600891,157.788986 161.870804,159.538071 170.477295,163.584656 
	C175.256378,167.378433 179.517578,170.766846 184.103027,174.235809 
	C184.624268,174.212433 184.821259,174.108521 185.018265,174.004608 
	C185.018265,174.004608 184.992752,174.000626 184.988724,173.988464 
z"/>
<path fill="#C7493A" opacity="1.000000" stroke="none" 
	d="
M269.726807,270.201660 
	C268.181274,279.120758 261.459747,284.379639 253.699127,290.214722 
	C256.043488,290.564240 257.532074,290.975433 259.021698,290.979309 
	C276.001495,291.023346 292.981812,290.944550 309.961060,291.047058 
	C314.126465,291.072205 316.085480,289.557739 316.052856,285.216858 
	C315.903931,265.412567 315.991791,245.605865 315.724609,225.803665 
	C315.676575,222.242432 317.352234,221.994171 319.943726,222.003220 
	C327.767700,222.030563 335.591827,222.031769 343.415833,222.013443 
	C344.365601,222.011215 345.314972,221.827484 347.641998,221.583374 
	C344.921906,219.451065 343.079376,218.022934 341.254089,216.573135 
	C329.740692,207.428284 318.221191,198.291016 306.743408,189.101654 
	C306.007721,188.512634 305.604492,187.508331 305.018951,186.351685 
	C316.499329,195.008316 328.019135,203.995514 339.508667,213.021225 
	C343.240234,215.952576 346.892700,218.984650 350.271027,222.997498 
	C339.439117,222.997498 328.607178,222.997498 317.299133,222.997498 
	C317.299133,246.337555 317.299133,269.053864 317.299133,292.036682 
	C315.557129,292.189148 314.276917,292.397247 312.996429,292.398804 
	C294.689606,292.421051 276.382080,292.493256 258.076752,292.326630 
	C255.534592,292.303467 253.003433,291.069122 250.256805,289.472015 
	C260.343048,286.324005 264.350281,277.813141 269.726807,270.201660 
z"/>
<path fill="#EB8577" opacity="1.000000" stroke="none" 
	d="
M278.862244,329.028290 
	C278.927948,333.008240 279.193695,337.001556 278.928436,340.959351 
	C278.855804,342.043335 277.191406,343.020630 276.257446,344.046875 
	C275.308624,343.032562 273.558929,342.036072 273.535980,341.001190 
	C273.326233,331.554962 273.307861,322.099152 273.562012,312.654938 
	C273.592743,311.512939 275.468781,309.612701 276.662781,309.465149 
	C279.925934,309.061829 283.303101,309.185394 286.596191,309.503387 
	C293.189728,310.140045 296.492340,312.850159 296.962524,317.585144 
	C297.449493,322.488953 295.141205,325.141785 287.885803,327.351257 
	C285.976410,327.729919 284.600159,328.161438 283.223907,328.592957 
	C282.071106,328.396851 280.918274,328.200775 279.384216,327.683350 
	C279.019592,326.877228 279.036163,326.392456 279.480255,325.946808 
	C282.645935,325.598236 285.581451,325.703552 288.075165,324.705231 
	C291.651581,323.273529 291.794434,319.831665 290.758484,316.689331 
	C289.409546,312.597565 286.148804,311.593231 282.077515,312.052094 
	C278.189117,312.490326 279.202301,315.309601 279.033844,317.617157 
	C278.950226,318.763031 278.877472,319.909698 278.567932,320.731873 
	C277.997925,317.980957 277.659790,315.554169 277.321686,313.127380 
	C276.793213,313.172455 276.264771,313.217499 275.736328,313.262543 
	C275.736328,322.550018 275.736328,331.837494 275.736328,341.124969 
	C277.231110,339.837341 277.739777,338.321777 277.975586,336.764923 
	C278.364044,334.200104 278.575928,331.608551 278.862244,329.028290 
z"/>
<path fill="#F38173" opacity="1.000000" stroke="none" 
	d="
M353.813568,325.957397 
	C357.534241,329.629761 361.281097,333.276093 364.965027,336.984985 
	C366.924774,338.957977 368.775543,341.039215 370.898804,343.310455 
	C367.420624,345.620331 364.840332,345.262543 362.342468,342.435791 
	C358.535522,338.127563 354.575623,333.954468 350.300049,329.554138 
	C349.919403,329.384216 349.846985,328.960022 349.847656,328.605286 
	C349.049896,322.989227 348.251434,317.727875 347.452972,312.466553 
	C347.105652,312.514069 346.758301,312.561584 346.410980,312.609131 
	C346.410980,321.874878 346.410980,331.140625 346.410980,341.339874 
	C347.677704,339.703430 348.336212,338.852722 348.996460,338.419952 
	C348.992157,340.497314 348.986115,342.156708 348.980072,343.816162 
	C348.239166,343.883667 347.498291,343.951172 346.351868,343.670776 
	C345.590698,342.890381 345.235046,342.457916 344.879395,342.025452 
	C344.690002,332.109589 344.409637,322.193298 344.452759,312.278442 
	C344.457031,311.292419 346.432983,310.314941 347.493835,309.333466 
	C348.334656,310.451111 349.732910,311.485748 349.914001,312.701630 
	C350.506439,316.680115 350.655823,320.724579 351.632935,324.903748 
	C352.798065,325.361694 353.305817,325.659546 353.813568,325.957397 
z"/>
<path fill="#F47F70" opacity="1.000000" stroke="none" 
	d="
M247.863434,313.765991 
	C248.402176,312.296783 248.940903,310.827606 249.479645,309.358398 
	C249.980484,309.285828 250.481323,309.213287 250.982147,309.140717 
	C255.964783,320.472107 260.947388,331.803497 266.005066,343.305542 
	C261.894562,344.718445 259.653809,344.081787 258.348175,340.397675 
	C257.641846,338.404694 255.994675,336.745178 254.396606,334.549530 
	C254.011688,333.771820 254.002121,333.379822 254.252899,332.761444 
	C252.340012,327.651215 250.166779,322.767303 248.003632,317.473267 
	C247.963593,315.964081 247.913513,314.865051 247.863434,313.765991 
z"/>
<path fill="#F47F70" opacity="1.000000" stroke="none" 
	d="
M318.027313,315.003082 
	C318.788483,313.086487 319.549652,311.169861 320.310852,309.253265 
	C320.783417,309.201752 321.256012,309.150208 321.728607,309.098694 
	C326.731201,320.472626 331.733826,331.846527 336.782257,343.324585 
	C332.588257,344.902649 330.288239,343.861694 329.109314,340.029297 
	C328.585083,338.325256 327.477234,336.800690 326.285065,334.706238 
	C325.574188,333.795441 325.212524,333.373077 324.980316,332.560242 
	C323.380127,327.170288 321.650482,322.170807 319.834503,316.884369 
	C319.174561,316.065979 318.600952,315.534546 318.027313,315.003082 
z"/>
<path fill="#F38173" opacity="1.000000" stroke="none" 
	d="
M215.333710,339.114166 
	C216.415512,327.756287 207.525894,320.234314 203.984116,310.320038 
	C207.241302,308.943115 209.562607,308.511658 211.167542,312.467407 
	C213.092712,317.212494 215.565887,321.735260 217.957809,327.060181 
	C219.176468,328.187195 220.239059,328.608307 221.301651,329.029419 
	C221.097153,333.028076 220.892654,337.026764 220.330048,341.574463 
	C219.643875,342.747955 219.315796,343.372437 218.987717,343.996887 
	C218.551529,344.003265 218.115326,344.009674 217.295258,343.653992 
	C216.385483,341.899353 215.859589,340.506775 215.333710,339.114166 
z"/>
<path fill="#F38173" opacity="1.000000" stroke="none" 
	d="
M155.000977,342.894562 
	C154.567017,342.989502 154.133057,343.084442 153.280548,342.944489 
	C152.588379,342.200684 152.314743,341.691742 152.339172,341.002686 
	C157.959183,338.336334 159.728409,333.793488 160.240738,328.296814 
	C160.767776,322.642334 158.195419,318.360107 154.994476,314.001770 
	C155.550415,313.396454 155.924072,313.100983 156.297745,312.805542 
	C158.715210,314.334747 161.810837,315.351501 163.425018,317.487671 
	C168.603882,324.341278 167.391800,339.367828 156.401062,342.155701 
	C155.528061,342.453186 155.264511,342.673859 155.000977,342.894562 
z"/>
<path fill="#CD3621" opacity="1.000000" stroke="none" 
	d="
M223.371094,155.658600 
	C223.600677,155.924667 223.655212,156.222748 223.099091,156.969666 
	C222.730362,159.257843 222.797287,161.129181 222.864197,163.000534 
	C222.847076,163.728882 222.829956,164.457245 222.611572,165.593597 
	C222.410294,166.001617 222.071899,166.227707 221.894104,166.045258 
	C220.941498,167.677872 220.166702,169.492920 219.366241,171.292480 
	C219.340576,171.276962 219.302917,171.323639 219.027588,171.348450 
	C218.595886,171.684387 218.439499,171.995514 218.212311,172.241516 
	C218.141495,172.176376 218.236588,172.343658 217.861938,172.242004 
	C215.891190,171.427750 214.295105,170.715149 212.639954,169.876373 
	C212.580887,169.750214 212.776398,169.551712 212.838806,169.085022 
	C212.915863,163.332138 215.868881,158.018295 212.762939,152.774475 
	C212.773804,152.787430 212.805618,152.794357 213.143463,152.817902 
	C213.924622,152.412827 214.367966,151.984177 215.056595,151.305984 
	C218.255936,150.016525 221.205368,148.961914 224.192337,148.027115 
	C224.262451,148.005157 224.753845,149.329300 224.888031,150.096313 
	C224.660233,150.261795 224.518555,150.380615 224.539917,150.446838 
	C224.607193,150.655502 224.735687,150.844437 224.970276,151.066727 
	C225.100067,151.092453 225.318680,150.943359 225.318695,150.943359 
	C225.157654,151.301254 224.996597,151.659134 224.578674,152.378723 
	C224.321808,152.740433 223.877121,152.955338 223.634430,153.230469 
	C223.384857,154.223251 223.377975,154.940933 223.371094,155.658600 
z"/>
<path fill="#F37867" opacity="1.000000" stroke="none" 
	d="
M138.009979,309.955109 
	C138.759140,309.927704 139.508301,309.900330 140.641998,310.348633 
	C141.127335,311.674683 141.228134,312.525055 141.312317,313.811462 
	C141.344238,323.359070 141.392792,332.470612 141.341003,341.973206 
	C141.150513,342.894867 141.060349,343.425446 140.970154,343.955994 
	C140.229767,343.976715 139.489365,343.997437 138.322388,343.724487 
	C137.391922,342.915894 136.888062,342.400970 136.384216,341.886078 
	C136.341904,331.919922 136.299606,321.953796 136.615814,311.478760 
	C137.319550,310.631622 137.664764,310.293365 138.009979,309.955109 
z"/>
<path fill="#F67C6B" opacity="1.000000" stroke="none" 
	d="
M193.920685,274.477142 
	C195.300934,274.015472 196.783340,273.870483 198.646866,273.688202 
	C202.093094,282.541016 211.294724,283.778687 218.487183,287.709381 
	C222.232208,289.756042 224.638336,287.554291 225.021057,282.381409 
	C228.958145,284.875763 232.877625,287.792419 236.797104,290.709045 
	C236.560699,291.145355 236.324295,291.581665 236.087875,292.017975 
	C220.037918,291.514130 205.585693,286.884491 193.920685,274.477142 
z"/>
<path fill="#C7493A" opacity="1.000000" stroke="none" 
	d="
M273.273865,252.783813 
	C275.437866,250.739761 277.644409,247.380249 280.495148,246.693024 
	C289.183319,244.598526 298.153809,243.237946 307.286652,250.189529 
	C297.106079,252.955582 294.584900,262.012329 289.375702,268.832336 
	C287.604828,271.150787 284.361298,272.344391 281.424011,274.044983 
	C286.300049,270.572998 289.767761,265.800201 292.763947,260.252411 
	C295.082275,255.959854 299.057465,252.562134 302.426086,248.614227 
	C292.643005,245.462860 282.736298,245.656601 273.273865,252.783813 
z"/>
<path fill="#F67C6B" opacity="1.000000" stroke="none" 
	d="
M175.732727,341.963623 
	C175.727875,334.633972 175.723022,327.304291 175.979721,319.365936 
	C176.069122,318.158081 175.896973,317.558960 175.724823,316.959808 
	C175.731766,315.905365 175.738724,314.850952 176.071350,313.229980 
	C177.986267,310.569031 179.498718,310.446564 180.913223,312.839294 
	C180.966782,316.872986 181.020340,320.906708 181.032959,325.717529 
	C180.964584,326.928528 180.937134,327.362366 180.909683,327.796204 
	C180.883072,331.582581 180.856476,335.368958 180.566132,339.841370 
	C179.861053,341.667816 179.419724,342.808228 178.978394,343.948608 
	C178.547638,343.964142 178.116867,343.979645 177.306046,343.651794 
	C176.528244,342.860168 176.130493,342.411896 175.732727,341.963623 
z"/>
<path fill="#EA8D82" opacity="1.000000" stroke="none" 
	d="
M253.992569,332.987793 
	C254.002121,333.379822 254.011688,333.771820 254.027985,334.456573 
	C252.550522,334.834686 251.035782,335.153503 249.587570,334.963989 
	C244.124969,334.249115 239.864273,335.134033 238.797699,341.635956 
	C238.635315,342.625763 237.168610,343.401581 236.305176,344.276398 
	C235.671188,343.899780 235.037201,343.523193 234.403214,343.146576 
	C238.722443,333.517151 243.041656,323.887726 247.612152,314.012146 
	C247.913513,314.865051 247.963593,315.964081 247.902924,317.830811 
	C246.076324,322.997772 244.360504,327.397034 242.179962,332.987793 
	C246.867172,332.987793 250.429871,332.987793 253.992569,332.987793 
z"/>
<path fill="#EA8D82" opacity="1.000000" stroke="none" 
	d="
M317.775269,315.237396 
	C318.600952,315.534546 319.174561,316.065979 319.558929,317.067505 
	C317.288910,322.346069 315.208130,327.154541 312.699982,332.950714 
	C317.371765,332.950714 321.111328,332.950714 324.850861,332.950714 
	C325.212524,333.373077 325.574188,333.795441 325.982574,334.502563 
	C324.379883,334.860596 322.708740,335.140533 321.084930,334.969940 
	C315.333252,334.365692 310.558105,335.096985 309.156525,341.998077 
	C308.973663,342.898285 307.348999,343.505707 306.392151,344.248718 
	C305.981689,343.919830 305.571198,343.590912 305.160736,343.261993 
	C309.281586,333.998566 313.402405,324.735138 317.775269,315.237396 
z"/>
<path fill="#F38173" opacity="1.000000" stroke="none" 
	d="
M283.292480,328.944153 
	C284.600159,328.161438 285.976410,327.729919 287.550964,327.480103 
	C287.839691,327.813812 287.930084,327.965820 288.128510,328.666077 
	C288.516632,329.470123 288.796722,329.725861 289.076813,329.981598 
	C289.377716,330.119080 289.619690,330.325623 289.941803,331.142090 
	C290.529083,332.084808 290.977325,332.486603 291.425568,332.888428 
	C294.551453,336.214813 297.677338,339.541229 301.066986,343.148285 
	C297.169861,345.652405 294.679565,345.379120 292.369995,341.793488 
	C289.592865,337.481964 286.383362,333.448944 283.292480,328.944153 
z"/>
<path fill="#C7493A" opacity="1.000000" stroke="none" 
	d="
M263.744263,152.776672 
	C263.732452,153.060410 263.514099,153.127502 263.408813,153.046921 
	C255.682327,147.133102 251.046295,153.444031 245.937042,157.537750 
	C240.021606,162.277466 234.248245,167.194244 228.351929,171.958313 
	C227.643860,172.530365 226.553131,172.628769 225.287796,172.693298 
	C224.935822,172.439865 224.953995,171.972610 224.953995,171.972610 
	C224.953995,171.972610 225.001617,171.997925 225.237030,171.897949 
	C225.677750,171.532425 225.883041,171.266861 226.088333,171.001297 
	C234.627670,164.243271 243.375259,157.726791 251.615524,150.621902 
	C255.540375,147.237869 258.447052,146.891464 261.784729,150.820160 
	C262.311890,151.440659 262.984894,151.937225 263.744263,152.776672 
z"/>
<path fill="#F67C6B" opacity="1.000000" stroke="none" 
	d="
M223.933044,280.652832 
	C219.000153,281.492706 217.615036,276.798279 214.937103,274.245117 
	C207.937241,267.571289 202.694885,259.482269 198.182632,250.954071 
	C197.506317,249.675812 197.397812,248.097137 197.038559,246.266083 
	C197.738113,246.531998 198.668304,247.065353 199.076889,247.865173 
	C204.913651,259.290985 212.439316,269.420807 221.938019,278.071777 
	C222.658615,278.728058 223.205002,279.575562 223.933044,280.652832 
z"/>
<path fill="#C7493A" opacity="1.000000" stroke="none" 
	d="
M207.597351,177.293777 
	C210.371124,181.504547 212.839188,186.342667 216.092178,190.577881 
	C219.562851,195.096497 223.773071,199.047409 227.664490,203.242401 
	C229.656769,205.390076 231.657913,207.529526 233.672668,210.030212 
	C221.707962,202.102081 211.769531,192.189590 207.597351,177.293777 
z"/>
<path fill="#FCD0C7" opacity="1.000000" stroke="none" 
	d="
M224.579865,171.964951 
	C224.953995,171.972610 224.935822,172.439865 224.918930,172.673050 
	C224.902039,172.906235 224.937210,172.932312 224.628113,172.993851 
	C223.725159,173.622864 223.131302,174.190338 222.537445,174.757812 
	C222.295807,174.805618 222.093887,174.922226 221.524826,175.348755 
	C220.634796,176.011948 220.151642,176.434006 219.668472,176.856049 
	C219.278152,176.975998 218.887833,177.095947 218.038620,177.346893 
	C217.314194,177.577133 217.144485,177.763626 217.070587,178.037399 
	C217.070587,178.037399 217.032822,177.991974 216.607468,177.991501 
	C214.500336,177.904999 212.818558,177.818985 211.136780,177.732956 
	C210.886078,177.290451 210.635376,176.847961 210.296967,175.782166 
	C209.830383,173.104645 209.451508,171.050430 209.150574,168.685226 
	C209.256317,167.740234 209.284103,167.106232 209.506897,166.166901 
	C210.129761,164.240219 210.557617,162.618881 210.992523,160.999435 
	C210.999557,161.001343 211.000305,160.989258 211.368607,161.176376 
	C212.083405,164.092896 212.429901,166.822311 212.776398,169.551712 
	C212.776398,169.551712 212.580887,169.750214 212.646637,170.232422 
	C213.963654,173.258820 215.475067,174.920822 218.236588,172.343658 
	C218.236588,172.343658 218.141495,172.176376 218.456024,172.167389 
	C218.947998,171.880157 219.125458,171.601898 219.302917,171.323639 
	C219.302917,171.323639 219.340576,171.276962 219.640167,171.183105 
	C220.607803,170.359268 221.275864,169.629288 221.943924,168.899307 
	C222.697861,169.918640 223.451782,170.937958 224.579865,171.964951 
z"/>
<path fill="#C7493A" opacity="1.000000" stroke="none" 
	d="
M304.905670,185.687164 
	C303.644379,185.511566 302.065369,185.309860 300.981873,184.469406 
	C292.423767,177.830948 283.949921,171.083405 275.497864,164.309937 
	C275.080139,163.975189 275.105164,163.088028 274.900940,162.138229 
	C284.857758,169.667282 294.837646,177.516190 304.905670,185.687164 
z"/>
<path fill="#C7493A" opacity="1.000000" stroke="none" 
	d="
M209.072617,168.996216 
	C209.451508,171.050430 209.830383,173.104645 210.182983,175.552567 
	C209.348557,175.651413 208.540421,175.356537 207.410675,175.025879 
	C206.922058,170.273651 206.755020,165.557220 206.359406,160.414886 
	C206.130814,159.989014 206.057739,159.964844 206.075272,159.997742 
	C207.895889,157.754639 209.698975,155.478668 211.918900,152.964813 
	C212.335754,152.726944 212.752075,152.761536 212.752075,152.761536 
	C215.868881,158.018295 212.915863,163.332138 212.838806,169.085022 
	C212.429901,166.822311 212.083405,164.092896 211.361542,160.837769 
	C210.604004,159.704254 210.221848,159.096451 209.839691,158.488647 
	C209.635178,158.716751 209.229279,159.116470 209.255829,159.147629 
	C209.802795,159.789474 210.399017,160.389343 210.985474,160.997528 
	C210.557617,162.618881 210.129761,164.240219 209.410431,165.811462 
	C208.929230,165.093323 208.739502,164.425308 208.549789,163.757278 
	C207.503067,165.741699 204.614639,167.995163 209.072617,168.996216 
z"/>
<path fill="#FE725E" opacity="1.000000" stroke="none" 
	d="
M279.052734,325.907684 
	C279.036163,326.392456 279.019592,326.877228 279.025604,327.725555 
	C279.048218,328.089111 278.981598,328.563568 278.921936,328.795929 
	C278.575928,331.608551 278.364044,334.200104 277.975586,336.764923 
	C277.739777,338.321777 277.231110,339.837341 275.736328,341.124969 
	C275.736328,331.837494 275.736328,322.550018 275.736328,313.262543 
	C276.264771,313.217499 276.793213,313.172455 277.321686,313.127380 
	C277.659790,315.554169 277.997925,317.980957 278.610229,321.053040 
	C278.851532,322.128540 278.818726,322.558807 278.656921,323.091614 
	C278.357056,323.529694 278.442749,323.798920 278.846375,324.317108 
	C278.956024,325.057434 279.004395,325.482574 279.052734,325.907684 
z"/>
<path fill="#EE9890" opacity="1.000000" stroke="none" 
	d="
M221.566528,328.839569 
	C220.239059,328.608307 219.176468,328.187195 218.050644,327.408539 
	C220.260269,323.210083 222.422012,319.297058 224.849152,315.556305 
	C226.223587,313.438049 228.033615,311.602478 229.647430,309.639557 
	C229.092056,311.828339 228.817368,314.140198 227.922775,316.180237 
	C226.066574,320.413147 223.881348,324.501770 221.566528,328.839569 
z"/>
<path fill="#EE9890" opacity="1.000000" stroke="none" 
	d="
M354.078247,325.750488 
	C353.305817,325.659546 352.798065,325.361694 352.023621,324.928467 
	C356.618652,319.030457 361.047119,312.793091 367.618317,308.903412 
	C368.138519,309.424805 368.658752,309.946167 369.178955,310.467560 
	C364.233612,315.492889 359.288239,320.518219 354.078247,325.750488 
z"/>
<path fill="#EA8D82" opacity="1.000000" stroke="none" 
	d="
M181.317017,312.797058 
	C179.498718,310.446564 177.986267,310.569031 176.106323,312.835846 
	C175.815598,313.008270 175.731064,312.686310 175.814331,312.126648 
	C175.892349,311.301697 175.887100,311.036438 175.881851,310.771149 
	C178.296051,310.268677 180.690964,309.507507 183.129059,309.325806 
	C186.584808,309.068329 190.081665,309.093658 193.540466,309.316254 
	C194.530624,309.379974 195.450043,310.543121 196.401901,311.202118 
	C195.416245,311.815216 194.445724,312.923248 193.442276,312.953918 
	C189.540787,313.073151 185.628860,312.850342 181.317017,312.797058 
z"/>
<path fill="#EE9890" opacity="1.000000" stroke="none" 
	d="
M179.419556,344.013336 
	C179.419724,342.808228 179.861053,341.667816 180.504929,340.306580 
	C184.955719,340.226990 189.211441,340.266205 193.447311,340.576477 
	C194.604553,340.661255 195.702194,341.560089 196.827179,342.085327 
	C195.822464,342.953094 194.830276,344.546509 193.810883,344.564148 
	C189.165009,344.644318 184.511490,344.281555 179.419556,344.013336 
z"/>
<path fill="#C7493A" opacity="1.000000" stroke="none" 
	d="
M250.084839,225.333572 
	C253.988922,229.578217 258.301239,233.924240 261.868622,238.813766 
	C263.592987,241.177277 263.917480,244.562119 264.763245,247.888916 
	C259.829346,240.748352 255.008011,233.203415 250.084839,225.333572 
z"/>
<path fill="#C7493A" opacity="1.000000" stroke="none" 
	d="
M275.004059,269.679565 
	C274.808624,268.126526 274.814331,266.292114 274.714966,264.081848 
	C274.609863,263.706024 274.651215,263.736542 275.022339,263.820312 
	C276.107117,263.564606 276.820801,263.225128 277.534485,262.885681 
	C277.057159,262.590820 276.579803,262.295959 276.102448,262.001099 
	C278.629395,258.308868 281.935760,255.840454 286.395905,254.856796 
	C282.526428,259.884857 278.865814,264.641510 275.004059,269.679565 
z"/>
<path fill="#FCD0C7" opacity="1.000000" stroke="none" 
	d="
M212.762939,152.774475 
	C212.752075,152.761536 212.335754,152.726944 212.129425,152.693939 
	C211.857819,150.085129 212.535812,148.357239 215.578613,147.853119 
	C220.126556,147.099640 224.593140,145.855103 229.094330,144.819458 
	C229.303070,145.401718 229.511810,145.983978 229.720566,146.566238 
	C228.461060,147.996536 227.201569,149.426849 225.630371,150.900253 
	C225.318680,150.943359 225.100067,151.092453 225.110321,150.830933 
	C225.096603,150.388123 225.072662,150.206848 225.048737,150.025589 
	C224.753845,149.329300 224.262451,148.005157 224.192337,148.027115 
	C221.205368,148.961914 218.255936,150.016525 214.744339,151.358215 
	C213.726395,152.038132 213.266006,152.416245 212.805618,152.794357 
	C212.805618,152.794357 212.773804,152.787430 212.762939,152.774475 
z"/>
<path fill="#C7493A" opacity="1.000000" stroke="none" 
	d="
M233.808746,210.677032 
	C234.307327,210.318130 235.249207,209.934677 235.555054,210.223846 
	C240.094421,214.516083 244.549515,218.897430 249.018723,223.622162 
	C243.994019,219.646179 238.975128,215.305740 233.808746,210.677032 
z"/>
<path fill="#EA8D82" opacity="1.000000" stroke="none" 
	d="
M141.328934,313.375397 
	C141.228134,312.525055 141.127335,311.674683 141.014526,310.395386 
	C146.298660,308.687164 151.394623,308.790405 156.159119,312.473114 
	C155.924072,313.100983 155.550415,313.396454 154.634644,313.886658 
	C149.974686,311.374512 145.707123,311.375061 141.328934,313.375397 
z"/>
<path fill="#FDC2B5" opacity="1.000000" stroke="none" 
	d="
M183.778778,174.155273 
	C179.517578,170.766846 175.256378,167.378433 170.820068,163.708099 
	C171.655029,163.300125 172.665085,163.174072 174.194550,163.033936 
	C178.137329,166.007675 181.560699,168.995514 184.813828,172.522400 
	C184.355316,173.426071 184.067047,173.790665 183.778778,174.155273 
z"/>
<path fill="#C7493A" opacity="1.000000" stroke="none" 
	d="
M264.675110,248.637878 
	C266.010376,250.188354 267.396423,252.134964 268.837036,254.158218 
	C269.746338,253.833878 270.970856,253.397110 272.537842,252.949036 
	C271.298370,255.178543 269.716492,257.419342 267.717865,260.250519 
	C266.574554,255.964447 265.650208,252.499222 264.675110,248.637878 
z"/>
<path fill="#EE9890" opacity="1.000000" stroke="none" 
	d="
M141.425629,344.019592 
	C141.060349,343.425446 141.150513,342.894867 141.736206,342.053650 
	C145.501511,341.556274 148.771301,341.369537 152.041107,341.182800 
	C152.314743,341.691742 152.588379,342.200684 152.949905,342.987488 
	C149.318893,343.537933 145.599976,343.810577 141.425629,344.019592 
z"/>
<path fill="#C7493A" opacity="1.000000" stroke="none" 
	d="
M273.162567,160.428894 
	C270.190796,158.415955 267.113464,156.089157 263.994080,153.421921 
	C266.987061,155.425995 270.022003,157.770508 273.162567,160.428894 
z"/>
<path fill="#EB8577" opacity="1.000000" stroke="none" 
	d="
M349.846985,328.960022 
	C349.846985,328.960022 349.919403,329.384216 349.932434,329.597748 
	C349.853912,334.332703 349.762390,338.854095 349.325439,343.595825 
	C348.986115,342.156708 348.992157,340.497314 348.997314,337.981903 
	C349.279968,334.403961 349.563477,331.681976 349.846985,328.960022 
z"/>
<path fill="#C7493A" opacity="1.000000" stroke="none" 
	d="
M273.748230,264.446381 
	C273.081299,265.859894 272.135193,267.389893 270.896179,268.991760 
	C271.558533,267.563354 272.513794,266.063110 273.748230,264.446381 
z"/>
<path fill="#EE9890" opacity="1.000000" stroke="none" 
	d="
M215.073227,339.282013 
	C215.859589,340.506775 216.385483,341.899353 216.969604,343.618896 
	C216.289459,342.447205 215.551102,340.948517 215.073227,339.282013 
z"/>
<path fill="#C7493A" opacity="1.000000" stroke="none" 
	d="
M221.966476,168.675919 
	C221.275864,169.629288 220.607803,170.359268 219.665833,171.198608 
	C220.166702,169.492920 220.941498,167.677872 221.918015,166.347076 
	C222.132782,167.233185 222.145844,167.635010 222.158905,168.036835 
	C222.158905,168.036835 221.989029,168.452530 221.966476,168.675919 
z"/>
<path fill="#C7493A" opacity="1.000000" stroke="none" 
	d="
M280.596619,274.063416 
	C279.469635,274.367523 277.917969,274.680054 276.172241,274.773834 
	C277.376129,274.394012 278.774017,274.232910 280.596619,274.063416 
z"/>
<path fill="#EE9890" opacity="1.000000" stroke="none" 
	d="
M136.274384,342.179016 
	C136.888062,342.400970 137.391922,342.915894 137.951904,343.715973 
	C137.393539,343.491425 136.779053,342.981659 136.274384,342.179016 
z"/>
<path fill="#EE9890" opacity="1.000000" stroke="none" 
	d="
M181.221817,327.795349 
	C180.937134,327.362366 180.964584,326.928528 181.057922,326.173065 
	C181.848358,326.097290 182.572891,326.343109 184.173828,326.886322 
	C182.773438,327.368103 182.153687,327.581299 181.221817,327.795349 
z"/>
<path fill="#C7493A" opacity="1.000000" stroke="none" 
	d="
M222.979034,162.675308 
	C222.797287,161.129181 222.730362,159.257843 222.975739,157.171387 
	C223.342865,157.420807 223.397705,157.885345 223.354980,159.007034 
	C223.286301,160.107910 223.315201,160.551605 223.344101,160.995316 
	C223.260681,161.446899 223.177261,161.898499 222.979034,162.675308 
z"/>
<path fill="#D33019" opacity="1.000000" stroke="none" 
	d="
M275.861786,262.166199 
	C276.579803,262.295959 277.057159,262.590820 277.534485,262.885681 
	C276.820801,263.225128 276.107117,263.564606 275.044434,263.833374 
	C275.003998,263.285583 275.312561,262.808441 275.861786,262.166199 
z"/>
<path fill="#FCD0C7" opacity="1.000000" stroke="none" 
	d="
M222.441528,167.979919 
	C222.145844,167.635010 222.132782,167.233185 222.095825,166.529541 
	C222.071899,166.227707 222.410294,166.001617 222.609406,165.959564 
	C222.780396,166.586014 222.752274,167.254501 222.441528,167.979919 
z"/>
<path fill="#EE9890" opacity="1.000000" stroke="none" 
	d="
M219.319153,343.991394 
	C219.315796,343.372437 219.643875,342.747955 220.218109,342.017944 
	C220.193069,342.603607 219.921844,343.294769 219.319153,343.991394 
z"/>
<path fill="#EE9890" opacity="1.000000" stroke="none" 
	d="
M175.574707,342.183777 
	C176.130493,342.411896 176.528244,342.860168 176.984634,343.614014 
	C176.501083,343.414368 175.958893,342.909149 175.574707,342.183777 
z"/>
<path fill="#EA8D82" opacity="1.000000" stroke="none" 
	d="
M137.822266,309.784058 
	C137.664764,310.293365 137.319550,310.631622 136.738037,311.032837 
	C136.879349,310.601562 137.256958,310.107269 137.822266,309.784058 
z"/>
<path fill="#EE9890" opacity="1.000000" stroke="none" 
	d="
M175.561523,317.136414 
	C175.896973,317.558960 176.069122,318.158081 175.984436,318.900513 
	C175.617813,318.466888 175.508026,317.889923 175.561523,317.136414 
z"/>
<path fill="#EB8577" opacity="1.000000" stroke="none" 
	d="
M344.863770,342.342102 
	C345.235046,342.457916 345.590698,342.890381 345.982635,343.615234 
	C345.628662,343.491302 345.238403,343.075012 344.863770,342.342102 
z"/>
<path fill="#EB8577" opacity="1.000000" stroke="none" 
	d="
M291.317200,332.603882 
	C290.977325,332.486603 290.529083,332.084808 290.033508,331.365051 
	C290.393738,331.471191 290.801300,331.895264 291.317200,332.603882 
z"/>
<path fill="#C7493A" opacity="1.000000" stroke="none" 
	d="
M223.582001,155.427643 
	C223.377975,154.940933 223.384857,154.223251 223.693115,153.497192 
	C224.053192,153.661072 224.111893,153.833374 224.170593,154.005661 
	C224.044693,154.402679 223.918808,154.799683 223.582001,155.427643 
z"/>
<path fill="#FCD0C7" opacity="1.000000" stroke="none" 
	d="
M223.516144,160.846298 
	C223.315201,160.551605 223.286301,160.107910 223.395569,159.357056 
	C223.585236,159.599030 223.636719,160.148163 223.516144,160.846298 
z"/>
<path fill="#FCD0C7" opacity="1.000000" stroke="none" 
	d="
M224.369110,153.822540 
	C224.111893,153.833374 224.053192,153.661072 223.935791,153.222061 
	C223.877121,152.955338 224.321808,152.740433 224.560211,152.676132 
	C224.721634,152.954361 224.644638,153.296875 224.369110,153.822540 
z"/>
<path fill="#EB8577" opacity="1.000000" stroke="none" 
	d="
M288.997131,329.707611 
	C288.796722,329.725861 288.516632,329.470123 288.174316,328.927368 
	C288.380585,328.904785 288.649017,329.169220 288.997131,329.707611 
z"/>
<path fill="#C7493A" opacity="1.000000" stroke="none" 
	d="
M275.321808,273.896667 
	C275.250488,274.009247 275.052246,273.834137 275.016418,273.780426 
	C274.980591,273.726715 275.209808,273.592224 275.209808,273.592224 
	C275.209808,273.592224 275.393127,273.784058 275.321808,273.896667 
z"/>
<path fill="#C7493A" opacity="1.000000" stroke="none" 
	d="
M273.855957,160.972198 
	C273.739746,161.128342 273.469574,161.110626 273.221893,160.905396 
	C273.244415,160.717865 273.701965,160.798309 273.855957,160.972198 
z"/>
<path fill="#C7493A" opacity="1.000000" stroke="none" 
	d="
M249.046066,224.259491 
	C249.350922,224.076813 249.616531,224.265259 249.902618,224.785461 
	C249.689117,224.854385 249.383682,224.692184 249.046066,224.259491 
z"/>
<path fill="#F67C6B" opacity="1.000000" stroke="none" 
	d="
M224.972168,281.717682 
	C224.701248,281.888397 224.430389,281.704773 224.123260,281.194061 
	C224.314224,281.132477 224.609299,281.297943 224.972168,281.717682 
z"/>
<path fill="#EE9890" opacity="1.000000" stroke="none" 
	d="
M155.257812,342.867188 
	C155.264511,342.673859 155.528061,342.453186 156.059006,342.223602 
	C156.055832,342.423065 155.785248,342.631439 155.257812,342.867188 
z"/>
<path fill="#FCD0C7" opacity="1.000000" stroke="none" 
	d="
M225.841385,171.076782 
	C225.883041,171.266861 225.677750,171.532425 225.224518,171.874054 
	C225.182526,171.684174 225.388489,171.418228 225.841385,171.076782 
z"/>
<path fill="#EE9890" opacity="1.000000" stroke="none" 
	d="
M175.725983,310.938965 
	C175.887100,311.036438 175.892349,311.301697 175.853241,311.964813 
	C175.680542,312.089478 175.522552,311.825012 175.437866,311.538910 
	C175.402206,311.418427 175.521347,311.252197 175.725983,310.938965 
z"/>
<path fill="#FDE3DF" opacity="1.000000" stroke="none" 
	d="
M267.068909,240.496948 
	C266.260284,229.577713 270.955353,223.364563 280.989105,220.704742 
	C280.989105,225.438293 281.203278,230.375381 280.936615,235.286362 
	C280.577606,241.898636 276.271149,245.534393 270.035950,248.500366 
	C268.981445,245.750519 268.056824,243.339294 267.068909,240.496948 
z"/>
<path fill="#C7493A" opacity="1.000000" stroke="none" 
	d="
M211.290070,178.050537 
	C212.818558,177.818985 214.500336,177.904999 216.604965,178.020920 
	C215.366074,181.671906 213.377197,179.535553 211.290070,178.050537 
z"/>
<path fill="#C7493A" opacity="1.000000" stroke="none" 
	d="
M222.899506,174.787628 
	C223.131302,174.190338 223.725159,173.622864 224.623413,172.975983 
	C224.372391,173.536865 223.816986,174.177139 222.899506,174.787628 
z"/>
<path fill="#C7493A" opacity="1.000000" stroke="none" 
	d="
M220.036255,176.865219 
	C220.151642,176.434006 220.634796,176.011948 221.434326,175.501312 
	C221.301819,175.899948 220.852921,176.387161 220.036255,176.865219 
z"/>
<path fill="#C7493A" opacity="1.000000" stroke="none" 
	d="
M217.248901,178.009735 
	C217.144485,177.763626 217.314194,177.577133 217.773117,177.501038 
	C217.844360,177.744659 217.664612,177.897293 217.248901,178.009735 
z"/>
<path fill="#F67C6B" opacity="1.000000" stroke="none" 
	d="
M244.000427,238.000458 
	C243.704956,238.493942 243.409088,238.986969 243.113220,239.480011 
	C242.912827,239.308060 242.712433,239.136108 242.512024,238.964142 
	C242.825272,238.670395 243.138535,238.376633 243.725433,238.041031 
	C243.999069,237.999176 244.000000,238.000000 244.000427,238.000458 
z"/>
<path fill="#FE725E" opacity="1.000000" stroke="none" 
	d="
M196.009979,167.039322 
	C196.320084,165.528122 196.438751,164.321671 196.970871,163.339096 
	C198.263977,160.951202 199.749176,158.667328 201.216553,156.243164 
	C204.870148,158.139099 203.259216,166.027618 196.812042,171.225403 
	C196.497314,169.748566 196.251953,168.597229 196.009979,167.039322 
z"/>
<path fill="#FFEBEA" opacity="1.000000" stroke="none" 
	d="
M184.103027,174.235809 
	C184.067047,173.790665 184.355316,173.426071 184.911606,172.833878 
	C185.255814,172.851273 185.332016,173.096237 185.213226,173.672913 
	C184.821259,174.108521 184.624268,174.212433 184.103027,174.235809 
z"/>
<path fill="#FDE3DF" opacity="1.000000" stroke="none" 
	d="
M279.480255,325.946808 
	C279.004395,325.482574 278.956024,325.057434 278.902374,324.063934 
	C278.860016,323.326691 278.822968,323.157867 278.785919,322.989044 
	C278.818726,322.558807 278.851532,322.128540 278.842102,321.377167 
	C278.877472,319.909698 278.950226,318.763031 279.033844,317.617157 
	C279.202301,315.309601 278.189117,312.490326 282.077515,312.052094 
	C286.148804,311.593231 289.409546,312.597565 290.758484,316.689331 
	C291.794434,319.831665 291.651581,323.273529 288.075165,324.705231 
	C285.581451,325.703552 282.645935,325.598236 279.480255,325.946808 
z"/>
<path fill="#F37867" opacity="1.000000" stroke="none" 
	d="
M349.847656,328.605286 
	C349.563477,331.681976 349.279968,334.403961 348.995605,337.563965 
	C348.336212,338.852722 347.677704,339.703430 346.410980,341.339874 
	C346.410980,331.140625 346.410980,321.874878 346.410980,312.609131 
	C346.758301,312.561584 347.105652,312.514069 347.452972,312.466553 
	C348.251434,317.727875 349.049896,322.989227 349.847656,328.605286 
z"/>
<path fill="#FEE0DB" opacity="1.000000" stroke="none" 
	d="
M254.252899,332.761444 
	C250.429871,332.987793 246.867172,332.987793 242.179962,332.987793 
	C244.360504,327.397034 246.076324,322.997772 247.892853,318.240967 
	C250.166779,322.767303 252.340012,327.651215 254.252899,332.761444 
z"/>
<path fill="#FEE0DB" opacity="1.000000" stroke="none" 
	d="
M324.980316,332.560242 
	C321.111328,332.950714 317.371765,332.950714 312.699982,332.950714 
	C315.208130,327.154541 317.288910,322.346069 319.645233,317.354431 
	C321.650482,322.170807 323.380127,327.170288 324.980316,332.560242 
z"/>
<path fill="#FEE8E6" opacity="1.000000" stroke="none" 
	d="
M152.339172,341.002686 
	C148.771301,341.369537 145.501511,341.556274 141.836517,341.662567 
	C141.392792,332.470612 141.344238,323.359070 141.312317,313.811462 
	C145.707123,311.375061 149.974686,311.374512 154.452347,314.196472 
	C158.195419,318.360107 160.767776,322.642334 160.240738,328.296814 
	C159.728409,333.793488 157.959183,338.336334 152.339172,341.002686 
z"/>
<path fill="#C7493A" opacity="1.000000" stroke="none" 
	d="
M217.861938,172.242004 
	C215.475067,174.920822 213.963654,173.258820 212.705704,170.358582 
	C214.295105,170.715149 215.891190,171.427750 217.861938,172.242004 
z"/>
<path fill="#C7493A" opacity="1.000000" stroke="none" 
	d="
M213.143463,152.817902 
	C213.266006,152.416245 213.726395,152.038132 214.499039,151.607788 
	C214.367966,151.984177 213.924622,152.412827 213.143463,152.817902 
z"/>
<path fill="#C7493A" opacity="1.000000" stroke="none" 
	d="
M224.888031,150.096313 
	C225.072662,150.206848 225.096603,150.388123 224.980530,150.805206 
	C224.735687,150.844437 224.607193,150.655502 224.539917,150.446838 
	C224.518555,150.380615 224.660233,150.261795 224.888031,150.096313 
z"/>
<path fill="#C7493A" opacity="1.000000" stroke="none" 
	d="
M219.027588,171.348450 
	C219.125458,171.601898 218.947998,171.880157 218.526825,172.232529 
	C218.439499,171.995514 218.595886,171.684387 219.027588,171.348450 
z"/>
<path fill="#CD3621" opacity="1.000000" stroke="none" 
	d="
M209.150574,168.685226 
	C204.614639,167.995163 207.503067,165.741699 208.549789,163.757278 
	C208.739502,164.425308 208.929230,165.093323 209.215424,166.116791 
	C209.284103,167.106232 209.256317,167.740234 209.150574,168.685226 
z"/>
<path fill="#CD3621" opacity="1.000000" stroke="none" 
	d="
M210.992523,160.999435 
	C210.399017,160.389343 209.802795,159.789474 209.255829,159.147629 
	C209.229279,159.116470 209.635178,158.716751 209.839691,158.488647 
	C210.221848,159.096451 210.604004,159.704254 210.993225,160.650665 
	C211.000305,160.989258 210.999557,161.001343 210.992523,160.999435 
z"/>
<path fill="#EB8577" opacity="1.000000" stroke="none" 
	d="
M278.656921,323.091614 
	C278.822968,323.157867 278.860016,323.326691 278.841064,323.748718 
	C278.442749,323.798920 278.357056,323.529694 278.656921,323.091614 
z"/>
</svg>